<svg xmlns="http://www.w3.org/2000/svg" width="28" height="28" viewBox="0 0 512.002 512.002"><path d="M503.172 423.725H8.828A8.829 8.829 0 0 1 0 414.897V97.104a8.829 8.829 0 0 1 8.828-8.828h494.345a8.829 8.829 0 0 1 8.828 8.828v317.793a8.829 8.829 0 0 1-8.828 8.828z" fill="#41479B"/><path d="M512 97.104a8.829 8.829 0 0 0-8.828-8.828h-39.495l-163.54 107.147V88.276H211.86v107.147L48.323 88.276H8.828A8.83 8.83 0 0 0 0 97.104v22.83l140.31 91.928H0v88.276h140.31L0 392.066v22.83c0 4.876 3.953 8.83 8.828 8.83h39.495l163.54-107.148v107.147h88.276V316.578l163.54 107.147h39.494a8.829 8.829 0 0 0 8.828-8.828v-22.83l-140.31-91.928H512v-88.277H371.69L512 119.935v-22.83z" fill="#F5F5F5"/><g fill="#FF4B55"><path d="M512 229.518H282.483V88.276h-52.966v141.242H0v52.965h229.517v141.242h52.966V282.483H512"/><path d="M178.948 300.138L.25 416.135c.625 4.263 4.14 7.59 8.577 7.59h12.16l190.39-123.586h-32.43v-.002zm167.44 0H313.96l190.113 123.404c4.43-.472 7.928-4.09 7.928-8.646v-7.258l-165.612-107.5zM0 106.85l161.78 105.013h32.427L5.143 89.137C2.123 90.54 0 93.555 0 97.104v9.745zm332.566 105.013L511.693 95.586c-.744-4.122-4.184-7.31-8.52-7.31h-12.648L300.138 211.864h32.428z"/></g></svg>