<svg xmlns="http://www.w3.org/2000/svg" width="28" height="28" viewBox="0 0 512.001 512.001"><path d="M503.172 423.725H8.828A8.829 8.829 0 0 1 0 414.897V97.104a8.829 8.829 0 0 1 8.828-8.828h494.345a8.829 8.829 0 0 1 8.828 8.828v317.793a8.828 8.828 0 0 1-8.828 8.828z" fill="#F5F5F5"/><path d="M512 114.08H0V97.105a8.829 8.829 0 0 1 8.828-8.828h494.345a8.829 8.829 0 0 1 8.828 8.828v16.977zM0 191.49h512v25.805H0zm0-51.61h512v25.805H0zm512 129.023H8.828A8.829 8.829 0 0 1 0 260.075v-16.977h512v25.805zM0 346.32h512v25.805H0zm503.172 77.405H8.828A8.829 8.829 0 0 1 0 414.897V397.92h512v16.98a8.828 8.828 0 0 1-8.828 8.827zM0 294.71h512v25.805H0z" fill="#FF4B55"/><path d="M229.517 88.277H8.827A8.829 8.829 0 0 0 0 97.104v162.97a8.829 8.829 0 0 0 8.828 8.828h220.69a8.829 8.829 0 0 0 8.828-8.828V97.104c0-4.875-3.954-8.827-8.83-8.827z" fill="#41479B"/><path d="M24.79 108.538l1.953 5.86 6.177.047c.8.007 1.13 1.027.488 1.502l-4.97 3.67 1.865 5.89c.242.76-.627 1.393-1.278.927L24 122.844l-5.025 3.59c-.65.466-1.518-.165-1.278-.927l1.864-5.89-4.968-3.67c-.643-.475-.312-1.494.488-1.5l6.177-.048 1.954-5.86c.253-.76 1.325-.76 1.58-.002zm0 30.654l1.953 5.86 6.177.047c.8.006 1.13 1.026.488 1.5l-4.97 3.67 1.865 5.89c.242.762-.627 1.394-1.278.928L24 153.498l-5.025 3.59c-.65.466-1.518-.165-1.278-.927l1.864-5.888-4.968-3.67c-.643-.476-.312-1.495.488-1.502l6.177-.047 1.954-5.86c.253-.76 1.325-.76 1.58 0zm0 30.654l1.953 5.86 6.177.047c.8.007 1.13 1.027.488 1.502l-4.97 3.67 1.865 5.89c.242.76-.627 1.393-1.278.927L24 184.152l-5.025 3.59c-.65.466-1.518-.165-1.278-.927l1.864-5.89-4.968-3.67c-.643-.475-.312-1.494.488-1.5l6.177-.048 1.954-5.86c.253-.76 1.325-.76 1.58 0zm0 30.654l1.953 5.86 6.177.048c.8.007 1.13 1.027.488 1.502l-4.97 3.67 1.865 5.89c.242.76-.627 1.393-1.278.927L24 214.807l-5.025 3.59c-.65.466-1.518-.165-1.278-.927l1.864-5.89-4.968-3.67c-.643-.475-.312-1.494.488-1.5l6.177-.048 1.954-5.86c.253-.76 1.325-.76 1.58 0zm0 30.655l1.953 5.86 6.177.047c.8.007 1.13 1.027.488 1.502l-4.97 3.67 1.865 5.89c.242.76-.627 1.393-1.278.927L24 245.46l-5.025 3.592c-.65.465-1.518-.166-1.278-.928l1.864-5.89-4.968-3.67c-.643-.475-.312-1.494.488-1.5l6.177-.048 1.954-5.86c.253-.76 1.325-.76 1.58 0zm23.792-107.588l1.954 5.86 6.177.047c.8.007 1.13 1.027.488 1.502l-4.968 3.67 1.864 5.89c.242.76-.627 1.393-1.278.927l-5.025-3.592-5.025 3.593c-.65.465-1.518-.166-1.278-.928l1.864-5.89-4.97-3.67c-.642-.475-.31-1.494.49-1.5l6.176-.048 1.954-5.86c.25-.758 1.325-.758 1.578 0zm0 30.655l1.954 5.86 6.177.047c.8.006 1.13 1.026.488 1.5l-4.968 3.67 1.864 5.89c.242.762-.627 1.394-1.278.928l-5.025-3.592-5.025 3.592c-.65.465-1.518-.165-1.278-.928l1.864-5.89-4.97-3.67c-.642-.475-.31-1.494.49-1.5l6.176-.048 1.954-5.86c.25-.76 1.325-.76 1.578 0zm0 30.654l1.954 5.86 6.177.047c.8.007 1.13 1.027.488 1.502l-4.968 3.67 1.864 5.89c.242.76-.627 1.393-1.278.927l-5.025-3.592-5.025 3.592c-.65.465-1.518-.166-1.278-.928l1.864-5.89-4.97-3.67c-.642-.475-.31-1.494.49-1.5l6.176-.048 1.954-5.86c.25-.76 1.325-.76 1.578 0zm0 30.654l1.954 5.86 6.177.047c.8.007 1.13 1.027.488 1.502l-4.968 3.67 1.864 5.888c.242.762-.627 1.394-1.278.928l-5.025-3.592-5.025 3.592c-.65.465-1.518-.166-1.278-.928l1.864-5.89-4.97-3.67c-.642-.475-.31-1.494.49-1.5l6.176-.048 1.954-5.86c.25-.758 1.325-.758 1.578 0zm23.793-106.992l1.954 5.86 6.176.047c.8.007 1.13 1.027.488 1.502l-4.97 3.67 1.865 5.89c.24.76-.628 1.393-1.28.927l-5.024-3.592-5.025 3.592c-.65.465-1.517-.166-1.277-.928l1.864-5.89-4.97-3.67c-.642-.475-.31-1.494.49-1.5l6.176-.048 1.954-5.86c.252-.76 1.325-.76 1.578 0zm0 30.654l1.954 5.86 6.176.047c.8.006 1.13 1.026.488 1.5l-4.97 3.67 1.865 5.89c.24.762-.628 1.394-1.28.928l-5.024-3.592-5.025 3.592c-.65.465-1.517-.166-1.277-.928l1.864-5.89-4.97-3.67c-.642-.475-.31-1.494.49-1.5l6.176-.048 1.954-5.86c.252-.758 1.325-.758 1.578 0zm0 30.654l1.954 5.86 6.176.047c.8.007 1.13 1.027.488 1.502l-4.97 3.67 1.865 5.89c.24.76-.628 1.393-1.28.927l-5.024-3.592-5.025 3.592c-.65.465-1.517-.166-1.277-.928l1.864-5.89-4.97-3.67c-.642-.475-.31-1.494.49-1.5l6.176-.048 1.954-5.86c.252-.758 1.325-.758 1.578 0zm0 30.654l1.954 5.86 6.176.048c.8.007 1.13 1.027.488 1.502l-4.97 3.67 1.865 5.89c.24.76-.628 1.393-1.28.927l-5.024-3.592-5.025 3.592c-.65.465-1.517-.166-1.277-.928l1.864-5.89-4.97-3.67c-.642-.476-.31-1.495.49-1.502l6.176-.047 1.954-5.86c.252-.758 1.325-.758 1.578 0zm0 30.655l1.954 5.86 6.176.047c.8.007 1.13 1.027.488 1.502l-4.97 3.67 1.865 5.89c.24.76-.628 1.393-1.28.927l-5.024-3.59-5.025 3.59c-.65.466-1.517-.165-1.277-.927l1.864-5.89-4.97-3.67c-.642-.475-.31-1.494.49-1.5l6.176-.048 1.954-5.86c.252-.76 1.325-.76 1.578 0zM96.17 123.567l1.953 5.86 6.177.047c.8.007 1.13 1.027.488 1.502l-4.97 3.67 1.865 5.89c.242.76-.627 1.393-1.278.927l-5.025-3.592-5.025 3.593c-.65.465-1.518-.166-1.278-.928l1.864-5.89-4.968-3.67c-.643-.475-.312-1.494.488-1.5l6.177-.048 1.954-5.86c.252-.758 1.326-.758 1.58 0zm0 30.655l1.953 5.86 6.177.047c.8.006 1.13 1.026.488 1.5l-4.97 3.67 1.865 5.89c.242.762-.627 1.394-1.278.928l-5.025-3.592-5.025 3.592c-.65.465-1.518-.165-1.278-.928l1.864-5.89-4.968-3.67c-.643-.475-.312-1.494.488-1.5l6.177-.048 1.954-5.86c.252-.76 1.326-.76 1.58 0zm0 30.654l1.953 5.86 6.177.047c.8.007 1.13 1.027.488 1.502l-4.97 3.67 1.865 5.89c.242.76-.627 1.393-1.278.927l-5.025-3.592-5.025 3.592c-.65.465-1.518-.166-1.278-.928l1.864-5.89-4.968-3.67c-.643-.475-.312-1.494.488-1.5l6.177-.048 1.954-5.86c.252-.76 1.326-.76 1.58 0zm0 30.654l1.953 5.86 6.177.047c.8.007 1.13 1.027.488 1.502l-4.97 3.67 1.865 5.888c.242.762-.627 1.394-1.278.928l-5.025-3.592-5.025 3.592c-.65.465-1.518-.166-1.278-.928l1.864-5.89-4.968-3.67c-.643-.475-.312-1.494.488-1.5l6.177-.048 1.954-5.86c.252-.758 1.326-.758 1.58 0zm23.792-106.992l1.954 5.86 6.177.047c.8.007 1.13 1.027.488 1.502l-4.968 3.67 1.864 5.89c.242.76-.627 1.393-1.278.927l-5.026-3.592-5.025 3.592c-.65.465-1.518-.166-1.278-.928l1.863-5.89-4.97-3.67c-.642-.475-.31-1.494.49-1.5l6.176-.048 1.953-5.86c.253-.76 1.326-.76 1.58 0zm0 30.654l1.954 5.86 6.177.047c.8.006 1.13 1.026.488 1.5l-4.968 3.67 1.864 5.89c.242.762-.627 1.394-1.278.928l-5.026-3.592-5.025 3.592c-.65.465-1.518-.166-1.278-.928l1.863-5.89-4.97-3.67c-.642-.475-.31-1.494.49-1.5l6.176-.048 1.953-5.86c.253-.758 1.326-.758 1.58 0zm0 30.654l1.954 5.86 6.177.047c.8.007 1.13 1.027.488 1.502l-4.968 3.67 1.864 5.89c.242.76-.627 1.393-1.278.927l-5.026-3.592-5.025 3.592c-.65.465-1.518-.166-1.278-.928l1.863-5.89-4.97-3.67c-.642-.475-.31-1.494.49-1.5l6.176-.048 1.953-5.86c.253-.758 1.326-.758 1.58 0zm0 30.654l1.954 5.86 6.177.048c.8.007 1.13 1.027.488 1.502l-4.968 3.67 1.864 5.89c.242.76-.627 1.393-1.278.927l-5.026-3.592-5.025 3.592c-.65.465-1.518-.166-1.278-.928l1.863-5.89-4.97-3.67c-.642-.476-.31-1.495.49-1.502l6.176-.047 1.953-5.86c.253-.758 1.326-.758 1.58 0zm0 30.655l1.954 5.86 6.177.047c.8.007 1.13 1.027.488 1.502l-4.968 3.67 1.864 5.89c.242.76-.627 1.393-1.278.927l-5.026-3.59-5.025 3.59c-.65.466-1.518-.165-1.278-.927l1.863-5.89-4.97-3.67c-.642-.475-.31-1.494.49-1.5l6.176-.048 1.953-5.86c.253-.76 1.326-.76 1.58 0zm23.793-107.588l1.954 5.86 6.176.047c.8.007 1.13 1.027.488 1.502l-4.97 3.67 1.865 5.89c.24.76-.628 1.393-1.28.927l-5.024-3.592-5.025 3.593c-.65.465-1.517-.166-1.277-.928l1.864-5.89-4.97-3.67c-.642-.475-.31-1.494.49-1.5l6.176-.048 1.954-5.86c.253-.758 1.325-.758 1.578 0zm0 30.655l1.954 5.86 6.176.047c.8.006 1.13 1.026.488 1.5l-4.97 3.67 1.865 5.89c.24.762-.628 1.394-1.28.928l-5.024-3.592-5.025 3.592c-.65.465-1.517-.165-1.277-.928l1.864-5.89-4.97-3.67c-.642-.475-.31-1.494.49-1.5l6.176-.048 1.954-5.86c.253-.76 1.325-.76 1.578 0zm0 30.654l1.954 5.86 6.176.047c.8.007 1.13 1.027.488 1.502l-4.97 3.67 1.865 5.89c.24.76-.628 1.393-1.28.927l-5.024-3.592-5.025 3.592c-.65.465-1.517-.166-1.277-.928l1.864-5.89-4.97-3.67c-.642-.475-.31-1.494.49-1.5l6.176-.048 1.954-5.86c.253-.76 1.325-.76 1.578 0zm0 30.654l1.954 5.86 6.176.047c.8.007 1.13 1.027.488 1.502l-4.97 3.67 1.865 5.888c.24.762-.628 1.394-1.28.928l-5.024-3.592-5.025 3.592c-.65.465-1.517-.166-1.277-.928l1.864-5.89-4.97-3.67c-.642-.475-.31-1.494.49-1.5l6.176-.048 1.954-5.86c.253-.758 1.325-.758 1.578 0zm23.795-106.992l1.953 5.86 6.177.047c.8.007 1.13 1.027.488 1.502l-4.97 3.67 1.865 5.89c.242.76-.627 1.393-1.278.927l-5.025-3.592-5.025 3.592c-.65.465-1.518-.166-1.278-.928l1.864-5.89-4.968-3.67c-.643-.475-.312-1.494.488-1.5l6.177-.048 1.954-5.86c.252-.76 1.326-.76 1.58 0zm0 30.654l1.953 5.86 6.177.047c.8.006 1.13 1.026.488 1.5l-4.97 3.67 1.865 5.89c.242.762-.627 1.394-1.278.928l-5.025-3.592-5.025 3.592c-.65.465-1.518-.166-1.278-.928l1.864-5.89-4.968-3.67c-.643-.475-.312-1.494.488-1.5l6.177-.048 1.954-5.86c.252-.758 1.326-.758 1.58 0zm0 30.654l1.953 5.86 6.177.047c.8.007 1.13 1.027.488 1.502l-4.97 3.67 1.865 5.89c.242.76-.627 1.393-1.278.927l-5.025-3.592-5.025 3.592c-.65.465-1.518-.166-1.278-.928l1.864-5.89-4.968-3.67c-.643-.475-.312-1.494.488-1.5l6.177-.048 1.954-5.86c.252-.758 1.326-.758 1.58 0zm0 30.654l1.953 5.86 6.177.048c.8.007 1.13 1.027.488 1.502l-4.97 3.67 1.865 5.89c.242.76-.627 1.393-1.278.927l-5.025-3.592-5.025 3.592c-.65.465-1.518-.166-1.278-.928l1.864-5.89-4.968-3.67c-.643-.476-.312-1.495.488-1.502l6.177-.047 1.954-5.86c.252-.758 1.326-.758 1.58 0zm0 30.655l1.953 5.86 6.177.047c.8.007 1.13 1.027.488 1.502l-4.97 3.67 1.865 5.89c.242.76-.627 1.393-1.278.927l-5.025-3.59-5.025 3.59c-.65.466-1.518-.165-1.278-.927l1.864-5.89-4.968-3.67c-.643-.475-.312-1.494.488-1.5l6.177-.048 1.954-5.86c.252-.76 1.326-.76 1.58 0zm23.792-107.588l1.954 5.86 6.177.047c.8.007 1.13 1.027.488 1.502l-4.968 3.67 1.864 5.89c.242.76-.627 1.393-1.278.927l-5.025-3.592-5.025 3.593c-.65.465-1.518-.166-1.278-.928l1.864-5.89-4.97-3.67c-.642-.475-.31-1.494.49-1.5l6.176-.048 1.954-5.86c.252-.758 1.326-.758 1.578 0zm0 30.655l1.954 5.86 6.177.047c.8.006 1.13 1.026.488 1.5l-4.968 3.67 1.864 5.89c.242.762-.627 1.394-1.278.928l-5.025-3.592-5.025 3.592c-.65.465-1.518-.165-1.278-.928l1.864-5.89-4.97-3.67c-.642-.475-.31-1.494.49-1.5l6.176-.048 1.954-5.86c.252-.76 1.326-.76 1.578 0zm0 30.654l1.954 5.86 6.177.047c.8.007 1.13 1.027.488 1.502l-4.968 3.67 1.864 5.89c.242.76-.627 1.393-1.278.927l-5.025-3.592-5.025 3.592c-.65.465-1.518-.166-1.278-.928l1.864-5.89-4.97-3.67c-.642-.475-.31-1.494.49-1.5l6.176-.048 1.954-5.86c.252-.76 1.326-.76 1.578 0zm0 30.654l1.954 5.86 6.177.047c.8.007 1.13 1.027.488 1.502l-4.968 3.67 1.864 5.888c.242.762-.627 1.394-1.278.928l-5.025-3.592-5.025 3.592c-.65.465-1.518-.166-1.278-.928l1.864-5.89-4.97-3.67c-.642-.475-.31-1.494.49-1.5l6.176-.048 1.954-5.86c.252-.758 1.326-.758 1.578 0zm23.794-106.992l1.954 5.86 6.177.047c.8.007 1.13 1.027.488 1.502l-4.97 3.67 1.865 5.89c.242.76-.627 1.393-1.278.927l-5.025-3.592-5.025 3.592c-.65.465-1.518-.166-1.278-.928l1.864-5.89-4.97-3.67c-.642-.475-.31-1.494.49-1.5l6.176-.048 1.954-5.86c.252-.76 1.324-.76 1.578 0zm0 30.654l1.954 5.86 6.177.047c.8.006 1.13 1.026.488 1.5l-4.97 3.67 1.865 5.89c.242.762-.627 1.394-1.278.928l-5.025-3.592-5.025 3.592c-.65.465-1.518-.166-1.278-.928l1.864-5.89-4.97-3.67c-.642-.475-.31-1.494.49-1.5l6.176-.048 1.954-5.86c.252-.758 1.324-.758 1.578 0zm0 30.654l1.954 5.86 6.177.047c.8.007 1.13 1.027.488 1.502l-4.97 3.67 1.865 5.89c.242.76-.627 1.393-1.278.927l-5.025-3.592-5.025 3.592c-.65.465-1.518-.166-1.278-.928l1.864-5.89-4.97-3.67c-.642-.475-.31-1.494.49-1.5l6.176-.048 1.954-5.86c.252-.758 1.324-.758 1.578 0zm0 30.654l1.954 5.86 6.177.048c.8.007 1.13 1.027.488 1.502l-4.97 3.67 1.865 5.89c.242.76-.627 1.393-1.278.927l-5.025-3.592-5.025 3.592c-.65.465-1.518-.166-1.278-.928l1.864-5.89-4.97-3.67c-.642-.476-.31-1.495.49-1.502l6.176-.047 1.954-5.86c.252-.758 1.324-.758 1.578 0zm0 30.655l1.954 5.86 6.177.047c.8.007 1.13 1.027.488 1.502l-4.97 3.67 1.865 5.89c.242.76-.627 1.393-1.278.927l-5.025-3.59-5.025 3.59c-.65.466-1.518-.165-1.278-.927l1.864-5.89-4.97-3.67c-.642-.475-.31-1.494.49-1.5l6.176-.048 1.954-5.86c.252-.76 1.324-.76 1.578 0z" fill="#F5F5F5"/></svg>