<svg xmlns="http://www.w3.org/2000/svg" width="263.3" height="225.5" viewBox="0 0 263.3 225.5"><path d="M45.1 139.6l-.7.2c-2.9-8.4-11.6-14.2-20.5-14.2-4.5 0-11.7 2-11.7 7.7 0 4.5 6.2 5.8 9.6 6.9l13 3.9c4.2 1.3 8.6 2.8 11.9 5.8 3.5 3.3 5 7.5 5 12.3 0 13.5-13.3 22-26.2 22-6.5 0-12.4-3-16.8-3-1.4 0-2.3.7-3.1 1.7L0 159.7l.8-.3c3.3 10.9 12 19.4 23.8 19.4 9.9 0 17.6-5.8 17.6-12.8 0-8.1-7.3-10.2-13.6-12.1l-12.3-3.8c-7.2-2.2-13.4-5.6-13.4-14.1 0-11.1 12-15.2 21.2-15.2 6.8 0 9.9 2 13.9 2 1.6 0 2.4-.6 3.3-1.7l3.8 18.5zM66.5 177c-5.1-4.8-8.2-12-8.2-19 0-15.3 11.9-26.3 26.9-26.3 15.5 0 27.3 11.1 27.3 26.9 0 14.9-12.9 25.5-27.3 25.5-6.9-.1-13.6-2.3-18.7-7.1zm20.6 3c10.7 0 16.3-9.3 16.3-19.2 0-13.6-9.1-25.2-19.9-25.2-10.9 0-16 9.7-16 19.6 0 11.4 6.8 24.8 19.6 24.8zm38.1-47.4H137c8 0 15.1 1.2 21.4 6.6 5.9 5 9.5 12.5 9.5 20.3 0 6.8-2.8 13.9-8.1 18.3-6.1 5-12.5 5.2-20 5.2h-21.1v-.7c4.9-.8 5-4.7 5-8.8v-30.9c0-4.2-.1-8.6-5-9.3v-.7h6.5zm7 37c0 6.7-.2 9.9 7.9 9.9 12.1 0 18.7-7.5 18.7-19.4 0-12.7-7.5-23.9-20.8-23.9-6.2 0-5.8 3.1-5.8 8v25.4zm55.4 3.4c0 4.2.1 8.7 5 9.3v.7h-18.4v-.7c4.9-.6 5-4.6 5-8.8v-30.9c0-4.2-.1-8.6-5-9.3v-.7h18.4v.7c-4.9.8-5 4.7-5 8.9V173zm55.8-33.4l-.8.2c-2.9-8.4-11.6-14.2-20.5-14.2-4.6 0-11.7 2-11.7 7.7 0 4.5 6.2 5.8 9.6 6.9l13 3.9c4.2 1.3 8.6 2.8 11.9 5.8 3.5 3.3 5 7.5 5 12.3 0 13.5-13.3 22-26.3 22-6.5 0-12.4-3-16.8-3-1.4 0-2.3.7-3.2 1.7l-5.4-23.2.8-.3c3.3 10.9 12 19.4 23.8 19.4 9.9 0 17.6-5.8 17.6-12.8 0-8.1-7.3-10.2-13.6-12.1l-12.3-3.8c-7.2-2.2-13.4-5.6-13.4-14.1 0-11.1 12-15.2 21.2-15.2 6.8 0 9.9 2 13.9 2 1.6 0 2.4-.6 3.3-1.7l3.9 18.5zM22.3 199.9v1.1h-.6c0-.5-.1-1-.2-1.5 0-.5-.3-.6-.7-.6l-3-.1c-.1.6-.1 1.2-.1 1.9v8.2c0 1.5 0 1.6 1.8 1.7v.6c-.9-.1-1.8-.1-2.8-.1-.9 0-1.8 0-2.7.1v-.6c1.8-.1 1.8-.2 1.8-1.7v-8.2c0-.7 0-1.3-.1-1.9l-2.7.2c-.4 0-.6.1-.7.6-.1.5-.2.9-.2 1.5h-.6V200c0-.7 0-1.3-.1-2 1.8.1 3.6.1 5.5.1s3.7 0 5.5-.1c0 .6 0 1.3-.1 1.9zM38 211.2c-.4 0-.9 0-1.3.1-.3-.4-.5-.7-.8-1.1l-4.6-5.9.1-.3c.6 0 1.2 0 1.8-.1 1.3-.2 2.5-1.3 2.5-2.7 0-2.1-1.5-2.7-2.9-2.7-.7 0-1.4.1-1.9.3-.1.3-.1.7-.1 1.3v8.8c0 1.5 0 1.6 1.8 1.7v.6c-.9-.1-1.8-.1-2.8-.1-.9 0-1.8 0-2.7.1v-.6c1.8-.1 1.8-.2 1.8-1.7v-8.8c0-1.5 0-1.6-1.8-1.7v-.6c1.1.1 2.2.1 3.3.1 1.1 0 2.2 0 3.4-.1 2.6-.1 3.9 1.3 3.9 2.9 0 2.1-1.9 3.3-3.7 3.7l4.4 5.7c.3.4.7.5 1.1.5v.6H38zm17.1 0c-.9 0-1.7 0-2.5.1v-.6c.5 0 1 0 1.4-.3.3-.1.3-.4.1-.8l-1.2-2.8h-5.4c-.2.5-1.3 2.8-1.3 3.2 0 .6.9.5 1.6.6v.6c-.7-.1-1.5-.1-2.2-.1-.7 0-1.5 0-2.2.1v-.6c1.1-.2 1.2 0 1.7-1l.9-2 2.6-5.8c.6-1.4 1.2-2.8 1.7-4.1h.7l4.6 10.9c.3.6.5 1.2 1 1.7.2.2.6.3 1 .3v.6h-2.5zm-4.8-10.9l-2.4 5.7h4.8l-2.4-5.7zm21.4-.4l-3.2 7.9-1.4 3.5h-1l-.4-1.2-.7-1.7-3.5-8.6c-.4-1-.3-1.1-1.3-1.3h-.4v-.6c.8.1 1.7.1 2.5.1.9 0 1.7 0 2.5-.1v.6c-1.8 0-1.7.3-1.6.7l.7 2.1 3 7.6 2.5-6.2.8-2.3c.4-1.1 1-1.9-1.3-1.8v-.6c.7.1 1.4.1 2.1.1.7 0 1.4 0 2.1-.1v.6c-1-.2-1 .5-1.4 1.3zm16.5 9.7v1.6c-.7.1-2 .1-3.2.1-1.1 0-2.3-.1-3.4-.1-1.2 0-2.3 0-3.5.1v-.6c1 0 1.6-.4 1.6-1.7v-8.8c0-1.5 0-1.6-1.8-1.7v-.6c1.2.1 2.3.1 3.5.1 1.2 0 2.4-.1 3.5-.1 1.2 0 2.5 0 3.2.1-.2.6-.3 1.2-.3 1.9 0 .4-.1.7-.1 1.1h-.6c0-.7-.1-1.3-.3-1.9-.9-.3-1.9-.3-2.8-.3-.9 0-1.7 0-2.4.1-.1.5-.1.9-.1 1.6v3.6c4.2 0 4.4.3 4.4-1.6h.6v4.4H86c0-2.2-.1-2.1-4.4-1.9v3.7c0 .7 0 1.1.1 1.6.7.1 1.7.1 2.6.1 1 0 2.1 0 3.1-.3.1-.3.2-.6.2-1l.2-1.1h.6c-.1.4-.2 1-.2 1.6zm15.8-.4l-.2 2c-.6.1-1.8.1-3 .1-1.1 0-2.2-.1-3.3-.1-1.1 0-2.2 0-3.3.1v-.6c.9-.1 1-.7 1-2.2v-8.3c0-1.5 0-1.6-1.8-1.7v-.6c.9.1 1.8.1 2.7.1.9 0 1.8 0 2.8-.1v.6c-1.8.1-1.8.2-1.8 1.7v9.4l.1.7c.8.1 1.8.1 2.7.1 1 0 2.1 0 3.1-.3.1-.2.1-.4.2-.6l.4-1.6h.6c-.1.2-.1.8-.2 1.3zm24.9 1.2c-1.2.7-3.1 1.1-4.3 1.1-4.2 0-7.7-2.5-7.7-7 0-4.4 3.6-6.9 7.4-6.9 1.7 0 3.4.4 5 .9-.2 1-.3 1.9-.4 2.9h-.6c-.1-1.2.2-1.7-.9-2.2-.8-.4-1.7-.7-3.1-.7-3.2 0-5.3 2.2-5.3 5.7 0 3.8 2.5 6.5 6.3 6.5 1.4 0 2.7-.4 3.9-1.2l.2.2-.5.7zm12.1 1.2c-3.9 0-6.8-2.7-6.8-7.1 0-3.9 2.8-6.9 7.2-6.9 4.1 0 7 2.3 7 6.5s-3.2 7.5-7.4 7.5zm.1-13.2c-3.3 0-4.8 2.3-4.8 5.4 0 3.4 1.6 7 5.4 6.9 3.2-.1 4.7-2.5 4.7-6 0-3.7-1.7-6.3-5.3-6.3zm26.5 12.8c-.9 0-1.8 0-2.7.1v-.6c1.8-.1 1.8-.2 1.8-1.7v-8.8l-5.3 11.2h-.4l-5.3-11.2v9.2c0 1.1.4 1.2 1.6 1.3h.3v.6c-.7-.1-1.5-.1-2.3-.1-.8 0-1.5 0-2.3.1v-.6h.3c1.2-.1 1.5-.2 1.5-1.3v-9.6c0-1.1-.4-1.2-1.5-1.3h-.3v-.6c.6.1 1.2.1 1.8.1.6 0 1.2 0 1.8-.1l5.1 10.7 3.9-8.1c.4-.9.8-1.7 1-2.6.6.1 1.2.1 1.8.1.6 0 1.2 0 1.8-.1v.6h-.2c-1.1 0-1.5.2-1.5 1.3v9.2c0 1.5 0 1.6 1.8 1.7v.6c-.9-.1-1.8-.1-2.7-.1zm13.7-6.3c-.5 0-1 0-1.2-.1l-.2-.7c.3.1.7.2 1.2.2 1.6.1 2.8-1.1 2.8-2.8 0-2-1.2-2.9-3.1-2.9-.7 0-1.3.2-1.9.3-.1.3-.1.7-.1 1.3v8.8c0 1.5 0 1.6 1.8 1.7v.6c-.9-.1-1.8-.1-2.8-.1s-1.8 0-2.7.1v-.6c1.8-.1 1.8-.2 1.8-1.7v-8.8c0-1.5 0-1.6-1.8-1.7v-.6c1.1.1 2.2.1 3.4.1 1.1 0 2.2-.1 3.3-.1 1.9 0 4 .8 4 3 0 2.4-2.1 3.9-4.5 4zm18.9 6.3c-.9 0-1.7 0-2.6.1v-.6c.5 0 1 0 1.4-.3.3-.1.3-.4.1-.8l-1.2-2.8h-5.4c-.2.5-1.3 2.8-1.3 3.2 0 .6.9.5 1.6.6v.6c-.7-.1-1.4-.1-2.2-.1-.7 0-1.5 0-2.2.1v-.6c1.1-.2 1.2 0 1.7-1l.9-2 2.6-5.8c.6-1.4 1.2-2.8 1.7-4.1h.6l4.6 10.9c.3.6.5 1.2 1 1.7.2.2.6.3 1.1.3v.6h-2.4zm-4.9-10.9l-2.4 5.7h4.8l-2.4-5.7zm26.8-1.8c-1.2.1-1.6.2-1.6 1.3v11.8l-1.5-.3-9.2-11.2v9.3c0 1.1.4 1.2 1.6 1.3h.3v.6c-.8-.1-1.5-.1-2.3-.1-.8 0-1.5 0-2.3.1v-.6h.3c1.2-.1 1.5-.2 1.5-1.3v-9.6c0-1.1-.3-1.3-1.4-1.3h-.3v-.6c.6.1 1.1.1 1.7.1.6 0 1.1 0 1.6-.1l9 11.4v-9.5c0-1.1-.4-1.2-1.5-1.3h-.3v-.6c.8.1 1.5.1 2.3.1.8 0 1.5 0 2.3-.1v.6h-.2zm12.4 6.5c-.2.5-.3 1-.3 1.4v2.6c0 1.5 0 1.6 1.8 1.7v.6c-.9-.1-1.8-.1-2.8-.1-.9 0-1.8 0-2.7.1v-.6c1.8-.1 1.8-.2 1.8-1.7v-2.8c0-.2 0-.4-.1-.6l-2.3-4c-.6-1.1-1.8-3-3.2-2.8v-.6l2.1-.4c.5-.1.8.2 1.1.6.3.4.6.8.9 1.3l2.7 5 2-3.1c.8-1.2 1.4-2.4 2.1-3.6h1.5v.3c-1.5 1.7-3.8 5-4.6 6.7zm22.6-84.5c3.4 0 6.2 2.7 6.2 6.1 0 3.4-2.8 6.1-6.2 6.1-3.5 0-6.2-2.7-6.2-6.1 0-3.4 2.7-6.1 6.2-6.1zm0 .7c-3 0-5.4 2.4-5.4 5.4 0 3 2.4 5.5 5.4 5.5 3 0 5.4-2.4 5.4-5.5 0-3-2.4-5.4-5.4-5.4zm2.3 7.9c.4.7.7.8 1.1.8v.4H259l-1.9-3.2h-1v1.9c0 .9 0 .9.9.9v.4h-2.7v-.4c.7 0 .8-.1.8-.9v-4.8c0-.8-.1-.9-.8-.9v-.4h2.5c1.1 0 1.8.2 2.2.5.5.3.8.8.8 1.5s-.3 1.1-.6 1.4c-.3.3-.7.5-1.2.6l1.4 2.2zm-3.3-2.6h.6c.7 0 1.3-.1 1.7-.5.3-.3.4-.6.4-1.1 0-.4-.1-.8-.5-1.1-.3-.3-.8-.4-1.5-.4h-.4c-.3 0-.3.1-.3.5v2.6z" fill="#992937"/><path fill="#992937" stroke="#992937" stroke-width="1.5" d="M61.1 223.9h128.3v.9H61.1z"/><path fill="#992937" d="M158.2 58.1c0-28.9-37.1-29.5-37.1-47.1 0-4.8 2.4-9 9.4-9 2.3 0 5.6 1 8.9 3.5V3.2c-2.3-2-6-3.2-9.9-3.2-1.4 0-2.9.2-4.3.5-8.1 2-14.9 9.6-14.9 17.8 0 21.9 41.2 23.9 41.2 49.6 0 2.9-.5 5.6-1.5 8.1-13.4-22.6-53.6-30.7-50.5-54.3.6-4.6 3.8-8.1 6-9.6l-.7-1.6C99 13.9 92.9 23 92.9 34.8c0 25.9 34.5 38.4 50.2 50.3-6.1 5-14.8 7.7-24.1 7.7-15.9 0-35.6-14-35.6-36 0-5.6.8-8.9 2.6-12.9l-1-2.3c-.9 1.8-3.4 6-3.4 15.5 0 21.8 19 37.6 37.6 37.6 8.7 0 18.5-2.1 26.2-7.8 3.1 2.7 5.2 5.4 5.5 8.2.8 6.6-5.9 10.5-7.1 10.9v2.1c2.5-1 10.5-6.1 10.5-16.6 0-4.2-.8-8-2.2-11.4 3.7-5.4 6.1-12.6 6.1-22z"/></svg>