<svg xmlns="http://www.w3.org/2000/svg" width="250" height="82.1" viewBox="0 0 250 82.1">
  <g fill="#FFF">
    <path d="M60.9 36.7c2.2-1.9 4.2-4.4 5.6-7-1.8-.6-3.7-1-5.6-1v8m-1.4-.1c-2.3-1.8-4.3-4.3-5.6-7 1.8-.6 3.7-1 5.6-1v8zM60.9.8c2.2 1.8 4.2 4.3 5.6 6.9-1.8.7-3.7 1.1-5.6 1.1v-8zm-1.4 0c-2.3 1.8-4.3 4.3-5.6 6.9 1.8.6 3.7 1.1 5.6 1.1v-8zm1.4 26.4v-7.9h8.3c0 3.1-.8 6.2-2.1 9.1-1.9-.7-4.2-1.1-6.2-1.2zM79 19.3h-8.4c-.1 3.5-.9 6.5-2.2 9.6 1.8.8 3.4 1.8 4.9 3.1 3.5-3.3 5.5-7.9 5.7-12.7zM72.3 33c-1.3-1.1-3-2.2-4.6-2.8-1.5 2.8-3.4 5.1-5.7 7.2 3.8-.5 7.3-2 10.3-4.4zm-12.8-5.8v-7.9h-8.4c.1 3.1.8 6.3 2.1 9.1 2-.7 4.1-1.1 6.3-1.2zm-18.2-7.9h8.4c.2 3.5.9 6.5 2.3 9.6-1.9.8-3.5 1.8-5 3.1-3.5-3.3-5.4-7.8-5.7-12.7zM48 33c1.4-1.1 3-2.3 4.6-2.8 1.5 2.8 3.3 5.1 5.7 7.2-3.8-.5-7.4-2-10.3-4.4zm12.9-22.9V18h8.3c0-3.2-.8-6.2-2.1-9.1-2 .7-4.2 1.2-6.2 1.2zM79 18h-8.4c-.1-3.4-.9-6.5-2.2-9.6 1.8-.8 3.5-1.9 4.9-3.2 3.6 3.6 5.5 8.1 5.7 12.8zM72.3 4.3c-1.4 1.2-3 2.3-4.6 2.9C66.2 4.3 64.3 2.1 62 0c3.8.5 7.3 1.9 10.3 4.3zm-12.8 5.8V18h-8.4c.1-3.1.8-6.2 2.1-9.1 2 .7 4.1 1.2 6.3 1.2zM41.3 18h8.4c.2-3.4.9-6.5 2.3-9.6-1.9-.8-3.5-1.8-5-3.2-3.5 3.5-5.4 8-5.7 12.8zM48 4.3c1.4 1.2 2.9 2.3 4.6 2.9C54 4.5 56 2.1 58.2 0 54.5.5 50.9 1.9 48 4.3zM0 24.9h37.6c1.4 6.9 6.2 12.6 15.6 16.6-1.1 3.3-4.8 6.3-8.6 6.3H24.2c-3.1 0-5.6-2.6-6.6-4.7h20.7c1.2-.2 1.3-1.2.1-1.4H18.1c-2.6 0-5-2.3-6.4-4.7h23.7c1.2-.2 1.2-1.2 0-1.4H11.5c-2.4 0-4.6-2.8-5.5-4.7h26.2c1.3-.2 1.3-1.4 0-1.4H5.5c-2 .1-4.1-2.2-5.5-4.6zm120.3 0H82.7c-1.4 6.9-6.2 12.6-15.7 16.6 1.1 3.3 4.8 6.3 8.6 6.3H96c3.1 0 5.6-2.6 6.6-4.7H81.9c-1.3-.2-1.3-1.2-.1-1.4h20.4c2.6 0 5-2.3 6.4-4.7H84.9c-1.2-.2-1.2-1.2 0-1.4h23.9c2.4 0 4.6-2.8 5.5-4.7H88c-1.3-.2-1.3-1.4 0-1.4h26.7c2.1.1 4.2-2.2 5.6-4.6zM77.9 77.1L90 52.6h7.9l5 24.5h-7.5l-.4-2.9h-7.9l-1.3 2.9h-7.9zm11.2-8h5.1l-1.3-9-3.8 9zm-26.8 8L65 58.7h-7l1.2-6.2h21.4l-1.2 6.2h-6.7L70 77.1h-7.7zm-32.3 0l12.1-24.5H50l5 24.5h-7.4l-.4-2.9h-7.9L38 77.1h-8zm11.2-8h5.1l-1.3-9-3.8 9zm-24.1 8L22 52.6h8l-4.9 24.5h-8zM140.1 24.8v52.4M139.7 24.8h.7v52.4h-.7zM165.3 29l-.3-2.1c-.1.7-.2 1.3-.3 2l-1.9 10.8h4.2L165.3 29m3.3 19.1l-1.2-6.9h-4.8l-1.2 6.9h-1.7l4.2-22.9h2.2l4.1 22.9h-1.6zM179.9 45.8c-.5 1.7-2.1 2.4-3.7 2.4-.4 0-1.3 0-2.1-.6-1.5-1-1.5-2.6-1.5-4.1V36c0-.7 0-1.2.3-1.8.7-2.2 2.8-2.3 3.5-2.3 3.8 0 3.7 3.4 3.7 4.4v1.4h-1.4v-1.3c0-.7-.1-1.1-.1-1.4-.3-1.1-1-1.9-2.2-1.9-1.5 0-2 1-2.2 1.6-.2.5-.2 1.4-.2 1.5v7c0 .1 0 1.6.2 2.4.2.6.8 1.5 2.3 1.5 1.4 0 1.9-.9 2.1-1.4.1-.4.2-.8.2-1.2v-2.4h1.4V44c-.1 1-.1 1.3-.3 1.8M190.2 45.8c-.5 1.7-2.1 2.4-3.7 2.4-.4 0-1.3 0-2.1-.6-1.5-1-1.5-2.6-1.5-4.1V36c0-.7 0-1.2.3-1.8.7-2.2 2.8-2.3 3.5-2.3 3.7 0 3.7 3.4 3.7 4.4v1.4H189v-1.3c0-.7-.1-1.1-.1-1.4-.3-1.1-1-1.9-2.2-1.9-1.5 0-2 1-2.2 1.6-.2.5-.2 1.4-.2 1.5v7c0 .1 0 1.6.2 2.4.2.6.8 1.5 2.3 1.5 1.4 0 1.9-.9 2.1-1.4.1-.4.2-.8.2-1.2v-2.4h1.4V44c-.2 1-.2 1.3-.3 1.8M196.9 33.7c-1.3.8-2 2.5-2.1 2.9v11.5h-1.4V31.8h1.3v2.8c.3-.8.6-1.1 1-1.5.6-.6 1.1-1.1 2.4-1.7v1.8c-.4.2-.9.3-1.2.5M206 35.9c0-1.4-.4-2.1-.9-2.6-.2-.2-.7-.5-1.4-.5-.2 0-.9 0-1.4.5-.9.7-.9 1.7-.9 2.7v2.8h4.7v-2.9m.6 10.9c-1 1.3-2.5 1.3-3 1.3s-1-.1-1.4-.2c-.4-.1-1.6-.7-2-2-.2-.5-.3-.9-.3-1.8v-8.5c0-.3 0-.8.2-1.5.3-.9 1.1-2.4 3.5-2.4 1.7 0 2.7.8 3.1 1.4.7 1 .6 2.5.6 3.7v3.3h-6.1v4c0 .1 0 .7.1 1.2.2.6.7 1.6 2.3 1.6.2 0 1 0 1.6-.6.1-.1.3-.3.5-.7.3-.7.2-1.6.2-3.1h1.3v1.8c.1.9 0 1.7-.6 2.5M216.5 36c-.1-.3-.2-1.8-1.3-2.6-.4-.2-.8-.3-1.2-.3-1 0-1.8.7-2.1 1.6-.1.4-.1.8-.1 1.2v7.9c0 1 0 1.9.8 2.7.4.3.9.5 1.4.5 1.4 0 2.3-1.1 2.6-2.4V36m0 12.1v-1.7c-.1.3-.3.5-.5.7-.3.4-1.1 1.1-2.5 1.1-.4 0-1.8-.1-2.6-1.3-.6-.9-.7-1.9-.7-2.8v-8.2c0-.5-.1-2.5 1.4-3.5.3-.2.9-.6 1.8-.6 1.7 0 2.5 1.1 2.9 1.5v-8.1h1.3V48h-1.1zM222.7 31.8v16.3h-1.4V31.8h1.4zm-1.4-1.9v-2.5h1.4v2.5h-1.4zM226.9 47.5c-.4-.4-.4-.8-.4-1.3V33.1h-1.7v-1.3h1.7v-4.2h1.4v4.2h2.5v1.3h-2.5v12.8c0 .9.9.9 1.2.9.4 0 .8 0 1.2-.1V48c-1.7.2-2.8.2-3.4-.5M238.1 35.9c0-1.4-.4-2.1-.9-2.6-.2-.2-.7-.5-1.4-.5-.2 0-.9 0-1.4.5-.9.7-.9 1.7-.9 2.7v2.8h4.7v-2.9m.6 10.9c-1 1.3-2.5 1.3-3 1.3s-1-.1-1.4-.2c-.4-.1-1.6-.7-2-2-.2-.5-.3-.9-.3-1.8v-8.5c0-.3 0-.8.2-1.5.3-.9 1.1-2.4 3.5-2.4 1.7 0 2.6.8 3.1 1.4.7 1 .7 2.5.7 3.7v3.3h-6.1v4c0 .1 0 .7.1 1.2.2.6.7 1.6 2.3 1.6.2 0 1 0 1.6-.6.1-.1.3-.3.5-.7.3-.7.2-1.6.2-3.1h1.4v1.8c-.1.9-.2 1.7-.8 2.5M248.6 36c-.1-.3-.2-1.8-1.3-2.6-.4-.2-.8-.3-1.2-.3-1 0-1.8.7-2.1 1.6-.1.4-.1.8-.1 1.2v7.9c0 1 0 1.9.8 2.7.4.3.9.5 1.4.5 1.4 0 2.3-1.1 2.5-2.4V36m.1 12.1v-1.7c-.1.3-.3.5-.5.7-.3.4-1.1 1.1-2.5 1.1-.4 0-1.8-.1-2.6-1.3-.6-.9-.7-1.9-.7-2.8v-8.2c0-.5-.1-2.5 1.4-3.5.3-.2.9-.6 1.8-.6 1.7 0 2.5 1.1 2.9 1.5v-8.1h1.4V48h-1.2zM165.3 58l-.3-2.1c-.1.7-.2 1.3-.3 2l-1.9 10.8h4.2L165.3 58m3.3 19l-1.2-7h-4.8l-1.2 7h-1.7l4.2-22.9h2.2l4.1 22.9h-1.6zM178.9 64.1c-.2-1.2-1.2-2.3-2.5-2.3-.2 0-.7 0-1.2.3-1 .7-1 1.8-1 2.9v7.5c0 1 0 2.1.8 2.7.5.4 1.1.4 1.3.4.4 0 1.5-.2 2.1-1.3.2-.3.3-.5.4-1.1v-9.1m1.3 15.6c-.6 1.7-2.1 2.4-3.8 2.4-1.2 0-2.7-.5-3.2-1.6-.2-.5-.3-.9-.4-1.8h1.4c0 .1 0 .7.2 1.2.5.9 1.8.9 2 .9.3 0 1.8-.1 2.4-1.4.1-.3.2-.6.2-1.2v-2.7c-.4.4-1.2 1.4-2.8 1.4-.3 0-1.1-.1-1.8-.5-1.4-.9-1.4-2.5-1.4-4v-8.2c0-.6 0-1.1.2-1.7.6-1.9 2.5-2 3.1-2 1.6 0 2.4 1 2.7 1.5v-1.3h1.4v17c0 .4.1 1.2-.2 2M189.5 64.9c0-1.4-.4-2.1-.9-2.5-.2-.2-.7-.5-1.4-.5-.2 0-.9 0-1.4.5-.9.7-.9 1.7-.9 2.7v2.8h4.7v-3m.6 10.8c-1 1.3-2.5 1.3-3 1.3s-1-.1-1.4-.2c-.4-.1-1.6-.7-2-2-.2-.5-.3-.9-.3-1.8v-8.5c0-.3 0-.8.2-1.5.3-.9 1.1-2.4 3.5-2.4 1.7 0 2.7.8 3.1 1.4.7 1 .6 2.5.6 3.7V69h-6.1v4c0 .1 0 .7.1 1.2.2.6.7 1.6 2.3 1.6.2 0 1 0 1.6-.6.1-.1.3-.3.5-.7.3-.7.2-1.5.2-3.1h1.4v1.8c0 1-.1 1.7-.7 2.5M200.2 77V64c0-.1 0-.6-.2-1s-.7-1.3-1.8-1.2c-.9 0-1.8.5-2.3 1.2-.2.2-.2.4-.4.8V77h-1.3V60.8h1.3v1.5c.3-.4.5-.6.6-.8.9-.9 1.9-1 2.4-1 1.3 0 2.5.7 2.9 2.1.1.5.2.9.2 1.3V77h-1.4M205.6 76.5c-.4-.4-.4-.8-.4-1.3V62.1h-1.7v-1.3h1.7v-4.2h1.4v4.2h2.5v1.3h-2.5v12.8c0 .9.9.9 1.2.9.4 0 .8 0 1.2-.1V77c-1.7.2-2.8.2-3.4-.5"/>
  </g>
</svg>