<svg xmlns="http://www.w3.org/2000/svg" width="61.4" height="37.9" viewBox="0 0 61.4 37.9"><g fill="#FFF"><path d="M14.7 17.5c-1 0-1.5.8-1.5 1.6 0 .9.5 1.7 1.5 1.7.9 0 1.5-.8 1.5-1.7 0-.9-.6-1.6-1.5-1.6zm30.9 0c-1 0-1.5.8-1.5 1.6 0 .9.6 1.7 1.5 1.7s1.5-.8 1.5-1.7c0-.9-.6-1.6-1.5-1.6z"/><path d="M42.4 0C38 0 34 1.6 30.7 4.1l.4.3c2.8 2.1 4.9 5 6.1 8.3.1.3 0 .7-.4.8h-.2c-.3 0-.5-.2-.6-.4-1.1-2.9-3-5.4-5.3-7.4-2.4 2-4.2 4.5-5.4 7.4-.1.3-.5.5-.8.4-.3-.1-.5-.5-.4-.8 1.3-3.3 3.4-6.1 6.2-8.3l.4-.3C27.5 1.6 23.4 0 19 0 8.5 0 0 8.5 0 18.9c0 10.5 8.5 19 19 19 4.4 0 8.4-1.5 11.7-4.1 3.2 2.5 7.3 4.1 11.7 4.1 10.5 0 18.9-8.5 18.9-19C61.4 8.5 52.9 0 42.4 0zM30.8 16.5c1.4 0 2.4 1.1 2.4 2.6v.4h-3.8c.2.9.8 1.3 1.5 1.3.5 0 1.1-.2 1.5-.5l.5.8c-.6.5-1.3.7-2.1.7-1.5 0-2.6-1-2.6-2.7.1-1.5 1.2-2.6 2.6-2.6zm-19.7 5.2H10v-2.9c0-.8-.4-1.3-1.1-1.3s-1.3.6-1.3 1.3v2.8H6.5v-2.9c0-.8-.3-1.3-1.1-1.3s-1.3.6-1.3 1.3v2.8h-1v-5.1h1.1v.6c.4-.5.9-.7 1.5-.7.7 0 1.3.3 1.6.9.5-.7 1.1-.9 1.8-.9 1.2 0 1.9.8 1.9 2l.1 3.4zm6.2-2.6v2.6h-1.1v-.6c-.4.5-.9.7-1.6.7-1.4 0-2.5-1.1-2.5-2.7 0-1.5 1.1-2.6 2.5-2.6.7 0 1.2.3 1.6.7v-.6h1.1v2.5zm3.2 2.7c-.9 0-1.6-.2-2.2-.7l.5-.8c.4.3.9.5 1.7.5.7 0 1.1-.2 1.1-.6 0-.3-.3-.4-.9-.5l-.5-.1c-1.1-.1-1.8-.6-1.8-1.4 0-1 .9-1.6 2.1-1.6.8 0 1.5.2 2 .5l-.5.9c-.3-.2-.9-.4-1.6-.4-.6 0-1 .2-1 .6 0 .3.4.4.9.5l.5.1c1.1.2 1.8.6 1.8 1.5.2.8-.7 1.5-2.1 1.5zm3-5.2h1.1v-1.5h1.1v1.5h1.8v1.1h-1.8V20c0 .5.1.9.7.9.3 0 .6-.1.9-.3l.3.9c-.3.3-.9.4-1.4.4-1.2 0-1.7-.7-1.7-1.9v-2.3h-1.1l.1-1.1zm13.8 8.6c-1.3 3.2-3.4 6.1-6.1 8.3l-.4.3-.4-.3c-2.8-2.2-4.9-5.1-6.1-8.3-.1-.3 0-.7.4-.8.3-.1.7 0 .8.4 1.1 2.8 3 5.4 5.3 7.4 2.4-2 4.2-4.6 5.3-7.4.1-.3.5-.5.8-.4.3.1.5.5.4.8zm-.1-7.5c-.3-.1-.5-.1-.7-.1-.8 0-1.1.5-1.1 1.2v2.9h-1.1v-5.1h1.1v.6c.3-.4.7-.7 1.3-.7.2 0 .5 0 .8.2l-.3 1zm3.3 3.1c.5 0 .9-.2 1.3-.5l.5.9c-.5.4-1 .5-1.8.5-1.6 0-2.7-1.1-2.7-2.7 0-1.5 1.1-2.6 2.7-2.6.8 0 1.3.2 1.8.6l-.4 1c-.4-.3-.9-.5-1.3-.5-.9.1-1.5.7-1.5 1.6-.1 1.1.5 1.7 1.4 1.7zm7.7-1.7v2.6h-1.1v-.6c-.4.5-.9.7-1.6.7-1.4 0-2.5-1.1-2.5-2.7 0-1.5 1.1-2.6 2.5-2.6.7 0 1.2.3 1.6.7v-.6h1.1v2.5zm4.2-1.4c-.2-.1-.5-.1-.7-.1-.7 0-1 .5-1 1.2v2.9h-1.1v-5.1h1.1v.6c.3-.4.7-.7 1.3-.7.2 0 .6 0 .8.2l-.4 1zm5.9 4h-1.1v-.6c-.3.5-.9.7-1.6.7-1.4 0-2.5-1.1-2.5-2.7 0-1.5 1.1-2.6 2.5-2.6.7 0 1.3.3 1.6.7v-2.7h1.1v7.2z"/><path d="M30.8 17.5c-.8 0-1.2.5-1.3 1.2h2.6c-.1-.8-.6-1.2-1.3-1.2zm25 0c-.9 0-1.5.8-1.5 1.6 0 .9.6 1.7 1.5 1.7s1.5-.8 1.5-1.7c0-.9-.6-1.6-1.5-1.6z"/></g></svg>