<?xml version="1.0" encoding="UTF-8" standalone="no"?>
<svg
   xmlns:dc="http://purl.org/dc/elements/1.1/"
   xmlns:cc="http://creativecommons.org/ns#"
   xmlns:rdf="http://www.w3.org/1999/02/22-rdf-syntax-ns#"
   xmlns:svg="http://www.w3.org/2000/svg"
   xmlns="http://www.w3.org/2000/svg"
   viewBox="0 0 175.53333 135.65334"
   height="135.65334"
   width="175.53333"
   xml:space="preserve"
   id="svg2"
   version="1.1"><metadata
     id="metadata8"><rdf:RDF><cc:Work
         rdf:about=""><dc:format>image/svg+xml</dc:format><dc:type
           rdf:resource="http://purl.org/dc/dcmitype/StillImage" /></cc:Work></rdf:RDF></metadata><defs
     id="defs6" /><g
     transform="matrix(1.3333333,0,0,-1.3333333,0,135.65333)"
     id="g10"><g
       transform="scale(0.1)"
       id="g12"><path
         id="path14"
         style="fill:#ffffff;fill-opacity:1;fill-rule:nonzero;stroke:none"
         d="m 225.426,319.453 -3.664,-0.957 c -14.395,42.188 -57.973,70.977 -102.516,70.977 -22.7265,0 -58.4687,-10.215 -58.4687,-38.477 0,-22.293 31.1133,-29.207 47.7967,-34.336 l 64.938,-19.5 c 20.851,-6.476 43.109,-13.879 59.343,-29.199 17.641,-16.731 25.055,-37.551 25.055,-61.719 0,-67.707 -66.312,-109.9139 -131.238,-109.9139 -32.4767,0 -62.1837,14.8439 -83.9806,14.8439 -6.9141,0 -11.5703,-3.692 -15.7266,-8.336 L 0,218.809 4.19922,220.207 C 20.918,165.91 64.0586,123.215 123.453,123.215 c 49.543,0 88.074,28.797 88.074,64.012 0,40.332 -36.589,51.027 -68.172,60.742 l -61.6948,19.062 c -36.1758,11.125 -67.2305,27.844 -67.2305,70.449 0,55.704 59.8516,76.133 106.1833,76.133 33.856,0 49.625,-10.215 69.617,-10.215 7.879,0 12.016,2.754 16.629,8.313 l 18.567,-92.258" /><path
         id="path16"
         style="fill:#ffffff;fill-opacity:1;fill-rule:nonzero;stroke:none"
         d="m 435.27,117.316 c 53.593,0 81.515,46.68 81.515,96.055 0,68.164 -45.551,125.969 -99.539,125.969 -54.73,0 -79.965,-48.637 -79.965,-98.012 0,-57.012 34.071,-124.012 97.989,-124.012 z m -103,15.274 c -25.614,24.148 -40.907,60.144 -40.907,94.914 0,76.598 59.297,131.734 134.723,131.734 77.719,0 136.633,-55.496 136.633,-134.363 0,-74.641 -64.317,-127.4609 -136.27,-127.4609 -34.844,0 -68.5,11.0629 -94.179,35.1759" /><path
         id="path18"
         style="fill:#ffffff;fill-opacity:1;fill-rule:nonzero;stroke:none"
         d="m 661,169.34 c 0,-33.656 -0.82,-49.348 39.453,-49.348 60.539,0 93.418,37.488 93.418,97.18 0,63.582 -37.5,119.488 -104.082,119.488 C 659.008,336.66 661,321.309 661,296.465 Z m -34.773,184.91 h 58.953 c 40.187,0 75.371,-6.094 107.187,-32.941 29.465,-24.844 47.461,-62.735 47.461,-101.387 0,-34.129 -13.808,-69.344 -40.625,-91.539 -30.254,-25.227 -62.371,-26.039 -99.871,-26.039 H 594.043 v 3.476 c 24.531,3.801 24.918,23.352 24.918,44.016 v 154.266 c 0,21.054 -0.387,43.242 -24.918,46.679 v 3.469 h 32.184" /><path
         id="path20"
         style="fill:#ffffff;fill-opacity:1;fill-rule:nonzero;stroke:none"
         d="m 938.207,152.52 c 0,-21.036 0.352,-43.262 24.914,-46.7 v -3.476 h -91.914 v 3.476 c 24.492,3.059 24.852,22.969 24.852,44.016 v 154.266 c 0,21.054 -0.36,43.242 -24.852,46.679 v 3.469 h 91.914 v -3.469 c -24.562,-3.777 -24.914,-23.328 -24.914,-44.363 V 152.52" /><path
         id="path22"
         style="fill:#ffffff;fill-opacity:1;fill-rule:nonzero;stroke:none"
         d="m 1217.24,319.453 -3.78,-0.957 c -14.31,42.188 -57.93,70.977 -102.46,70.977 -22.77,0 -58.46,-10.215 -58.46,-38.477 0,-22.293 31.12,-29.207 47.79,-34.336 l 64.96,-19.5 c 20.85,-6.476 43.13,-13.879 59.29,-29.199 17.69,-16.731 25.09,-37.551 25.09,-61.719 0,-67.707 -66.33,-109.9139 -131.26,-109.9139 -32.46,0 -62.13,14.8439 -83.96,14.8439 -6.95,0 -11.55,-3.692 -15.79,-8.336 l -26.859,115.973 4.191,1.398 c 16.648,-54.297 59.838,-96.992 119.188,-96.992 49.59,0 88.13,28.797 88.13,64.012 0,40.332 -36.63,51.027 -68.19,60.742 l -61.74,19.062 c -36.17,11.125 -67.2,27.844 -67.2,70.449 0,55.704 59.84,76.133 106.19,76.133 33.85,0 49.63,-10.215 69.61,-10.215 7.87,0 12.02,2.754 16.7,8.313 l 18.56,-92.258" /><path
         id="path24"
         style="fill:#ffffff;fill-opacity:1;fill-rule:nonzero;stroke:none"
         d="m 1280.3,384.648 h 2.93 c 3.73,0 6.4,0.559 8.35,2.364 1.41,1.289 2.21,3.047 2.21,5.664 0,2.199 -0.63,4.152 -2.51,5.656 -1.54,1.289 -4.08,2.098 -7.7,2.098 h -1.84 c -1.4,0 -1.44,-0.34 -1.44,-2.43 z m 16.86,-12.558 c 2.21,-3.652 3.72,-3.934 5.63,-3.934 v -2.14 h -7.71 l -9.63,16.211 h -5.15 v -9.43 c 0,-4.301 0,-4.641 4.49,-4.641 v -2.14 h -13.5 v 2.14 c 3.64,0 3.91,0.469 3.91,4.258 v 23.75 c 0,4.051 -0.27,4.481 -3.91,4.481 v 2.179 h 12.49 c 5.46,0 8.75,-0.859 11.22,-2.472 2.39,-1.598 4.12,-3.907 4.12,-7.364 0,-3.261 -1.4,-5.535 -2.96,-6.953 -1.57,-1.387 -3.48,-2.32 -5.83,-2.957 z m -11.73,39.152 c -14.88,0 -26.94,-12.07 -26.94,-27.168 0,-15.195 12.06,-27.285 27.06,-27.285 14.87,0 26.95,12.09 26.95,27.285 0,15.098 -12.08,27.168 -26.95,27.168 z m 0.12,3.379 c 17.09,0 30.92,-13.457 30.92,-30.547 0,-17.207 -13.83,-30.636 -31.04,-30.636 -17.26,0 -31.06,13.457 -31.06,30.636 0,17.09 13.8,30.547 31.06,30.547 h 0.12" /><path
         id="path26"
         style="fill:#ffffff;fill-opacity:1;fill-rule:nonzero;stroke:none"
         d="M 305.449,3.5 H 946.996 V 7.89063 H 305.449 V 3.5" /><path
         id="path28"
         style="fill:none;stroke:#ffffff;stroke-width:7;stroke-linecap:butt;stroke-linejoin:miter;stroke-miterlimit:4;stroke-dasharray:none;stroke-opacity:1"
         d="M 305.449,3.5 H 946.996 V 7.89063 H 305.449 Z" /><path
         id="path30"
         style="fill:#ffffff;fill-opacity:1;fill-rule:nonzero;stroke:none"
         d="m 791.246,726.648 c 0,144.364 -185.465,147.579 -185.465,235.469 0,23.906 12.114,44.903 46.782,44.903 11.3,0 27.812,-4.97 44.347,-17.707 v 11.817 c -11.398,9.9 -29.816,16.23 -49.586,16.23 -7.183,0 -14.332,-0.97 -21.293,-2.66 -40.457,-10.17 -74.488,-47.809 -74.488,-89.137 0,-109.657 205.824,-119.344 205.824,-248.133 0,-14.668 -2.656,-28.235 -7.597,-40.598 -67.012,113.027 -267.778,153.606 -252.321,271.652 3.012,23.184 19.235,40.547 29.758,47.774 l -3.402,7.754 c -28.867,-15.957 -59.102,-61.672 -59.102,-120.84 0,-129.434 172.414,-191.953 251.25,-251.594 -30.285,-25.008 -74.062,-38.699 -120.625,-38.699 -79.308,0 -178.254,70.164 -178.254,180.234 0,27.93 4.074,44.344 12.914,64.492 l -5.207,11.688 c -4.414,-8.945 -16.933,-30.223 -16.933,-77.41 0,-108.84 95.148,-188.067 188.058,-188.067 43.407,0 92.586,10.653 130.758,39.129 15.586,-13.398 25.801,-26.804 27.52,-40.957 4.043,-33.027 -29.317,-52.437 -35.477,-54.664 v -10.527 c 12.578,4.805 52.371,30.367 52.371,82.906 0,20.949 -4.121,39.844 -11.211,57.121 19.25,27.059 31.379,62.93 31.379,109.824" /></g></g></svg>