<svg xmlns="http://www.w3.org/2000/svg" width="60.9" height="19.8" viewBox="0 0 60.9 19.8"><g fill="#FFF"><path d="M57 .4h-5.3l-8.2 18.8h5l1-2.7h6.2l.5 2.7h4.5L57 .4zm-6.1 12.5l2.7-7.1 1.4 7.1h-4.1zm-29.2 6.3h5l3-18.8h-5.1zM17.3.4l-4.6 13.4s-.3-1.1-.4-1.9C9.8 6.1 5.5 4 5.5 4l4 15.2H15L22.6.4h-5.3z"/><path d="M12.1 10.8l-1.7-8.5S9.6.4 7.7.4H0s9.8 3 12.1 10.4zm24.7-5c0-1.1.9-1.9 3.3-1.9 1.6 0 3.5 1.2 3.5 1.2l.8-4.2S42 0 39.7 0c-5.3 0-8 2.6-8 5.9 0 5.9 6.9 5.1 6.9 8.2 0 .5-.4 1.7-3.3 1.7s-4.8-1.1-4.8-1.1l-.9 4s1.8 1.1 5.4 1.1c3.6 0 8.5-2.8 8.5-6.8.2-4.8-6.7-5.1-6.7-7.2z"/></g></svg>