<svg xmlns="http://www.w3.org/2000/svg" width="198" height="51.7" viewBox="0 0 198 51.7"><g fill="#FFF" fill-rule="evenodd" clip-rule="evenodd"><path d="M25.9 0c4.1 0 7.9.9 11.3 2.6.5.3 1.1.5 1.6.8l-2.4 2.1-3.6-3.7-6 5.4-3.6-3.9L12 13.5l7.2 7.9-2.8 2.5 7.1 8-2.8 2.5 10.1 11.3 6-5.5 5.2 5.9c-1 .8-2.2 1.6-3.4 2.3-3.8 2.1-8.1 3.4-12.7 3.4C11.6 51.7 0 40.1 0 25.9S11.6 0 25.9 0z"/><path d="M21.1 24.2l6.2-5.5 5.5 6.1-6.1 5.6-5.6-6.2zm4.4 10.6l6.2-5.5 5.5 6.2L31 41l-5.5-6.2zm-8.8-21.1l6.2-5.5 5.5 6.1-6.1 5.6-5.6-6.2zm11.3-3l4.6-4.1 4.2 4.6-4.6 4.2-4.2-4.7zm8.2 19.1l4.6-4.2 4.2 4.6-4.6 4.2-4.2-4.6zm4.1 9.3l4.6-4.2 4.1 4.6-4.6 4.2-4.1-4.6zm1.8-21.4l3.1-2.7 2.8 3-3.1 2.8-2.8-3.1zm-3.9-9.1l3.1-2.8L44 8.9l-3 2.8-2.8-3.1zm7.9 18.3l3-2.8 2.8 3.1-3.1 2.7-2.7-3zM32.3 20l4.6-4.1 4.1 4.6-4.6 4.1-4.1-4.6z"/></g><path fill="#FFF" fill-rule="evenodd" d="M122.9 15.9l-.1.1-.1-.1c-1.1-1-2.2-1.3-3.7-1.3-3.3 0-5.5 2.3-5.5 5.9v16.9h3.3V20.5c0-2.4 1.6-2.6 2.2-2.6.4 0 1 .1 1.4.5.5.5.7 1.2.7 2.1v16.9h3.3V20.5c0-2.4 1.6-2.6 2.2-2.6.4 0 1 .1 1.4.5.5.5.7 1.2.7 2.1v16.9h3.3V20.5c0-1.9-.6-3.4-1.6-4.5-1-.9-2.3-1.4-3.9-1.4-1.4 0-2.6.4-3.6 1.3zm24.3 6.5c-1.1-1.2-2.9-2.2-5.4-2.2-2.4 0-4.2 1-5.3 2.2-1.7 1.9-2.1 4.5-2.1 6.6 0 2 .3 4.7 2.1 6.6 1.1 1.2 2.9 2.2 5.3 2.2 2.5 0 4.3-1 5.4-2.2 1.7-1.9 2.1-4.5 2.1-6.6-.1-2.1-.4-4.7-2.1-6.6zm-1.3 7.3c0 1.6 0 3.4-1.2 4.7-.5.5-1.4 1.1-2.9 1.1-1.4 0-2.4-.6-2.8-1.1-1.2-1.3-1.2-3.1-1.2-4.7v-1.5c0-1.6 0-3.4 1.2-4.6.5-.5 1.4-1.2 2.8-1.2 1.5 0 2.5.6 2.9 1.2 1.2 1.3 1.2 3 1.2 4.6v1.5zm6.1-9.2h2.8V22c.8-.6 1.5-1 2.4-1.3 1-.4 1.7-.5 2.7-.5 1.4 0 2.9.3 4.1 1.6 1.2 1.3 1.4 2.9 1.4 4.3v11.2h-3.1V25.9c0-2.7-1.7-3.5-3.2-3.5-1.4 0-2.9.6-4.1 1.7v13.2h-3V20.5zm28.5 13.6c-.6.3-1.2.5-2 .8-.9.3-1.6.4-2.6.4-1.6 0-3-.5-3.8-1.4-.6-.6-1.2-1.7-1.2-3.8v-.4h10.4v-.8c0-2.7-.1-4.9-1.8-6.7-1.1-1.2-2.8-2-4.9-2-2.4 0-4.1 1-5.2 2.2-1.7 2-1.9 4.6-1.9 6.3 0 1.9.3 4.7 2 6.6 1.1 1.3 3.1 2.4 5.9 2.4 1.3 0 2.6-.1 4-.7.7-.3 1.5-.7 2.1-1l-1-1.9zm-9.6-7c0-1.9.6-3 1.1-3.6.5-.5 1.3-1.1 2.6-1.1.9 0 1.7.2 2.4.8 1.1 1.1 1.1 2.4 1.1 3.5v.7H171v-.3zm27.1-6.6l-6.6 19.9c-.2.9-.9 2.3-1.6 3.1-.9 1-2 1.4-3.3 1.4-.9 0-1.8-.2-2.7-.7-.5-.3-1.1-.7-1.4-1.1l1.4-1.8c.2.2.6.5.9.7.5.3 1.1.4 1.6.4.9 0 1.5-.5 1.8-.9.3-.4.7-1.4.9-2.1l.4-1.3-7.1-17.6h3.3l4.2 10.6c.4 1 .9 2.6 1 3h.1c.5-2 .8-2.7 1.2-4l3-9.6h2.9zM68.3 36.4l.1-.1.1.1c1.1.9 2.2 1.3 3.7 1.3 3.3 0 5.5-2.4 5.5-5.9V14.9h-3.4v16.9c0 2.4-1.6 2.6-2.1 2.6-.4 0-1 0-1.4-.5-.5-.4-.7-1.2-.7-2.1V14.9h-3.4v16.9c0 2.4-1.6 2.6-2.2 2.6-.4 0-1 0-1.4-.5-.5-.4-.7-1.2-.7-2.1V14.9H59v16.9c0 1.8.6 3.4 1.6 4.4 1 1 2.4 1.5 3.9 1.5 1.6.1 2.8-.4 3.8-1.3zm24.9-2.3c-.5.2-1.2.5-1.9.8-.9.3-1.6.4-2.6.4-1.6 0-3-.5-3.8-1.4-.5-.6-1.2-1.7-1.2-3.8v-.4H94v-.8c0-2.7-.1-4.9-1.7-6.7-1.1-1.2-2.8-2-5-2-2.3 0-4 1-5.1 2.2-1.8 2-1.9 4.6-1.9 6.3 0 1.9.2 4.7 2 6.6 1.2 1.3 3.1 2.4 5.9 2.4 1.3 0 2.6-.2 4-.7.7-.2 1.5-.7 2-1l-1-1.9zm-9.5-7c0-1.9.6-3 1.1-3.6.4-.5 1.2-1.1 2.5-1.1.9 0 1.7.2 2.4.9 1.1 1 1.1 2.3 1.1 3.5v.7h-7.1v-.4zm24.7-5.2c-1.2-1.1-2.9-1.7-4.6-1.7-.8 0-1.6.1-2.2.2-.5.1-1.1.4-1.6.6v-6.6h-3v21.4c1.8 1.1 3.9 1.8 6.3 1.8 1.8 0 4.2-.4 5.9-2.7 1.4-1.9 1.7-4.2 1.7-6.2-.1-1.6-.2-4.8-2.5-6.8zm-5.2.5c1.2 0 2.5.4 3.2 1.2 1.1 1.2 1.1 2.9 1.1 4.4v1.4c0 2.8-.5 4-.9 4.6-.5.6-1.5 1.4-3.2 1.4-.6 0-1.4-.2-2-.3-.4-.1-1-.4-1.4-.7v-11" clip-rule="evenodd"/></svg>